<svg id="Logo" xmlns="http://www.w3.org/2000/svg" viewBox="0 0 700 700"><defs><style>.cls-1{fill:#f2f2f2;}</style></defs><g id="Logo-2" data-name="Logo"><path id="Initiator" class="cls-1" d="M696.64,351.27C696.64,159.82,541.45,4.63,350,4.63S3.36,159.82,3.36,351.27c0,162.57,111.91,299,262.9,336.44V457.2H194.78V351.27h71.48V305.63c0-118,53.39-172.68,169.23-172.68,22,0,59.85,4.31,75.35,8.61v96c-8.18-.86-22.39-1.29-40-1.29-56.84,0-78.8,21.53-78.8,77.51v37.46H505.22L485.77,457.2H392V695.37C563.63,674.64,696.64,528.5,696.64,351.27Z"/><path id="Initiator-2" data-name="Initiator" class="cls-1" d="M696.64,351.27C696.64,159.82,541.45,4.63,350,4.63S3.36,159.82,3.36,351.27c0,162.57,111.91,299,262.9,336.44V457.2H194.78V351.27h71.48V305.63c0-118,53.39-172.68,169.23-172.68,22,0,59.85,4.31,75.35,8.61v96c-8.18-.86-22.39-1.29-40-1.29-56.84,0-78.8,21.53-78.8,77.51v37.46H505.22L485.77,457.2H392V695.37C563.63,674.64,696.64,528.5,696.64,351.27Z"/></g></svg>