<svg id="Layer_1" data-name="Layer 1" xmlns="http://www.w3.org/2000/svg" viewBox="0 0 1000 1000"><defs><style>.cls-1{fill:#0f0f0f;}</style></defs><path class="cls-1" d="M292.92,3.5C239.72,6,203.39,14.5,171.63,27,138.76,39.79,110.9,57,83.18,84.8s-44.79,55.7-57.51,88.62C13.36,205.25,5,241.61,2.67,294.84S-.2,365.18.06,501,.92,653.76,3.5,707.1C6,760.29,14.5,796.61,27,828.38c12.83,32.87,30,60.72,57.83,88.45s55.69,44.76,88.69,57.5c31.8,12.29,68.17,20.67,121.39,23s70.35,2.87,206.09,2.61,152.83-.86,206.16-3.39,89.46-11,121.24-23.47c32.87-12.86,60.74-30,88.45-57.84s44.77-55.74,57.48-88.68c12.32-31.8,20.69-68.17,23-121.35,2.33-53.37,2.88-70.41,2.62-206.17s-.87-152.78-3.4-206.1-11-89.53-23.47-121.32c-12.85-32.87-30-60.7-57.82-88.45s-55.74-44.8-88.67-57.48C794.75,13.38,758.4,5,705.18,2.69S634.83-.2,499,.06,346.25.9,292.92,3.5m5.84,903.88c-48.75-2.12-75.22-10.22-92.86-17-23.36-9-40-19.88-57.58-37.29s-28.38-34.11-37.5-57.42C104,778,95.72,751.59,93.44,702.84c-2.48-52.69-3-68.51-3.29-202s.22-149.29,2.53-202c2.08-48.71,10.23-75.21,17-92.84,9-23.39,19.84-40,37.29-57.57s34.1-28.39,57.43-37.51C222,104,248.46,95.86,297.19,93.54c52.73-2.5,68.53-3,202-3.29s149.31.21,202.06,2.53c48.71,2.12,75.22,10.19,92.83,17,23.37,9,40,19.81,57.57,37.29s28.4,34.07,37.52,57.45c6.89,17.57,15.07,44,17.37,92.76,2.51,52.73,3.08,68.54,3.32,202s-.23,149.31-2.54,202c-2.13,48.75-10.21,75.23-17,92.89-9,23.35-19.85,40-37.31,57.56s-34.09,28.38-57.43,37.5c-17.6,6.87-44.07,15.07-92.76,17.39-52.73,2.48-68.53,3-202.05,3.29s-149.27-.25-202-2.53m407.6-674.61a60,60,0,1,0,59.9-60.1h0a60,60,0,0,0-59.88,60.1M243.27,500.5C243.55,642.3,358.71,757,500.48,756.72S757,641.3,756.75,499.5,641.29,243,499.5,243.26,243,358.72,243.27,500.5m90.06-.18a166.67,166.67,0,1,1,167,166.34,166.67,166.67,0,0,1-167-166.34v0"/></svg>