<svg width="56" height="56" viewBox="0 0 56 56" fill="none" xmlns="http://www.w3.org/2000/svg">
<path d="M26.7931 55.9755C19.9825 55.7276 15.767 53.7048 14.6945 50.1699L14.5699 49.759L14.5524 42.8291C14.5324 34.8977 14.5394 34.7371 14.9609 33.4741C15.7301 31.1696 17.549 29.6838 20.3937 29.0362L21.0227 28.8929L28.8441 28.8583C34.4479 28.8334 36.7714 28.8053 37.0387 28.7591C38.6049 28.4887 39.6323 28.0837 40.5969 27.3566C41.7492 26.488 42.7003 25.0012 43.1253 23.4042C43.4446 22.2047 43.436 22.3357 43.4705 18.1224L43.5026 14.2055H46.3194H49.1362L49.6832 14.3585C52.6138 15.1782 54.7414 17.9591 55.6473 22.1538C55.9957 23.7672 55.9993 23.8269 56 27.9427C56.0006 31.9482 55.9988 31.9832 55.7194 33.297C55.4447 34.5885 55.0853 35.6392 54.5481 36.7209C53.4647 38.9024 51.8673 40.3788 49.8473 41.0656C48.6933 41.458 49.6593 41.4252 38.3065 41.4577L28.0784 41.487V42.4183V43.3495L34.8607 43.3769L41.6429 43.4043L41.6703 46.746C41.6853 48.584 41.6788 50.2455 41.6557 50.4382C41.5999 50.9045 41.4024 51.4579 41.1198 51.9397C40.8288 52.4359 39.9454 53.3234 39.3457 53.722C37.5242 54.9327 34.747 55.6708 31.0867 55.9168C29.8551 55.9996 28.111 56.0234 26.7931 55.9755ZM36.2007 51.6452C37.508 51.433 38.4438 50.1516 38.2282 48.8688C38.0505 47.8108 37.2349 46.9924 36.1845 46.8181C34.581 46.552 33.1228 48.0267 33.4081 49.6259C33.6157 50.7892 34.547 51.6082 35.7632 51.697C35.8083 51.7003 36.0052 51.677 36.2007 51.6452ZM7.05769 41.7607C5.51927 41.4806 4.00427 40.5467 2.93371 39.2186C0.905927 36.7031 -0.11773 32.5092 0.0107754 27.2436C0.0908576 23.9623 0.58064 21.5265 1.57701 19.4543C2.86131 16.7834 4.78025 15.1994 7.37074 14.672C7.93816 14.5564 7.9666 14.5561 17.9602 14.5601C23.4715 14.5623 28.0212 14.5486 28.0706 14.5296C28.149 14.4995 28.1605 14.3774 28.1605 13.5696C28.1605 13.0606 28.1543 12.6383 28.1468 12.6311C28.1393 12.6238 25.0811 12.6053 21.3509 12.59L14.5686 12.562L14.5545 9.0315C14.5391 5.16465 14.536 5.20949 14.8665 4.49934C16.0124 2.03747 19.3878 0.541708 24.7967 0.0989536C25.1877 0.0669427 26.2461 0.0262626 27.1486 0.00854776C33.1368 -0.108996 37.5295 0.987715 39.8385 3.17683C40.0943 3.41934 40.4277 3.78134 40.5793 3.98125C40.9241 4.43582 41.3533 5.30367 41.5177 5.87862L41.6429 6.31688V13.6029C41.6429 20.404 41.6364 20.9235 41.544 21.4093C41.4248 22.0362 41.1386 22.917 40.9 23.3909C40.0741 25.0316 38.5522 26.2136 36.5349 26.7814C35.225 27.15 35.8199 27.1258 27.1486 27.1635C18.5372 27.2009 19.0576 27.1808 17.8503 27.5225C15.5055 28.1863 13.7828 30.0155 13.083 32.5849C12.7684 33.7399 12.7754 33.632 12.741 37.8713L12.7089 41.8156L10.0835 41.8247C8.10163 41.8315 7.35999 41.8158 7.05769 41.7607ZM21.3939 8.98799C22.3893 8.51962 22.9887 7.42175 22.8085 6.39711C22.6423 5.45194 21.9943 4.69763 21.115 4.42559C19.7095 3.99082 18.2431 4.88798 17.9838 6.34124C17.7729 7.52316 18.4554 8.67378 19.6097 9.08234C19.8676 9.17365 20.0335 9.19215 20.4757 9.17897C20.9575 9.16462 21.0669 9.14185 21.3939 8.98799Z" fill="#FED142"/>
<path d="M7.05769 41.7607C5.51927 41.4806 4.00427 40.5467 2.93371 39.2186C0.905927 36.7031 -0.11773 32.5092 0.0107754 27.2436C0.0908576 23.9623 0.58064 21.5265 1.57701 19.4543C2.86131 16.7834 4.78025 15.1994 7.37074 14.672C7.93816 14.5564 7.9666 14.5561 17.9602 14.5601C23.4715 14.5623 28.0212 14.5486 28.0706 14.5296C28.149 14.4995 28.1605 14.3774 28.1605 13.5696C28.1605 13.0606 28.1543 12.6383 28.1468 12.6311C28.1393 12.6238 25.0811 12.6053 21.3509 12.59L14.5686 12.562L14.5545 9.0315C14.5391 5.16465 14.536 5.20949 14.8665 4.49934C16.0124 2.03747 19.3878 0.541708 24.7967 0.0989536C25.1877 0.0669427 26.2461 0.0262626 27.1486 0.00854777C33.1368 -0.108996 37.5295 0.987715 39.8385 3.17683C40.0943 3.41934 40.4277 3.78134 40.5793 3.98125C40.9241 4.43582 41.3533 5.30367 41.5177 5.87862L41.6429 6.31688V13.6029C41.6429 20.404 41.6364 20.9235 41.544 21.4093C41.4248 22.0362 41.1386 22.917 40.9 23.3909C40.0741 25.0316 38.5522 26.2136 36.5349 26.7814C35.225 27.15 35.8199 27.1258 27.1486 27.1635C18.5372 27.2009 19.0576 27.1808 17.8503 27.5225C15.5055 28.1863 13.7828 30.0155 13.083 32.5849C12.7684 33.7399 12.7754 33.632 12.741 37.8713L12.7089 41.8156L10.0835 41.8247C8.10163 41.8315 7.35999 41.8158 7.05769 41.7607ZM21.3939 8.98799C22.3893 8.51962 22.9887 7.42175 22.8085 6.39711C22.6423 5.45194 21.9943 4.69763 21.115 4.42559C19.7095 3.99082 18.2431 4.88799 17.9838 6.34124C17.7729 7.52316 18.4554 8.67379 19.6097 9.08234C19.8676 9.17365 20.0335 9.19215 20.4757 9.17897C20.9575 9.16462 21.0669 9.14185 21.3939 8.98799Z" fill="#3571A3"/>
</svg>
